<svg xmlns="http://www.w3.org/2000/svg" width="136" height="116" viewBox="0 0 136 116"><defs><style>.a{fill:#889287;}</style></defs><path class="a" d="M346.934,134.833h-.01l-.183.043a169.7,169.7,0,0,0-26.733,8.285,182.429,182.429,0,0,0,25.64-18.678.041.041,0,0,0-.019-.075l-.015,0-.159.06A174.86,174.86,0,0,0,319.6,136.542a206.39,206.39,0,0,0,23.154-22.313c.031-.032.012-.077-.02-.077l-.022.007-.234.126a191.846,191.846,0,0,0-24.51,15.348,219.577,219.577,0,0,0,20.359-25.184.043.043,0,0,0-.026-.073.063.063,0,0,0-.027.009s-.145.1-.167.121a204.719,204.719,0,0,0-23.43,19.218,233.281,233.281,0,0,0,17.718-28.193.045.045,0,0,0-.029-.072.049.049,0,0,0-.031.014l-.162.15a217.139,217.139,0,0,0-21.663,22.811,244.09,244.09,0,0,0,14.657-30.725c.015-.038-.007-.068-.032-.068a.047.047,0,0,0-.036.019l-.138.165a229.446,229.446,0,0,0-19.264,25.846A253.449,253.449,0,0,0,316.843,81.22c.01-.038-.01-.065-.036-.065a.048.048,0,0,0-.038.024l-.08.121a239.641,239.641,0,0,0-16.63,28.988,260,260,0,0,0,7.6-34.029c.005-.036-.015-.06-.039-.06a.042.042,0,0,0-.038.029l-.061.125a248.09,248.09,0,0,0-13.473,31.458,263.464,263.464,0,0,0,3.844-34.972c0-.036-.017-.056-.039-.056a.046.046,0,0,0-.039.034l-.05.135a252.42,252.42,0,0,0-9.991,33.562,264.665,264.665,0,0,0,.014-35.557c0-.032-.021-.049-.039-.049s-.034.012-.041.039l-.027.116a229.6,229.6,0,0,0-5.78,36.262v0c-.012.138-.024.278-.038.416s-.026.29-.039.437v.017a290.919,290.919,0,0,0-2.81-37.8c0-.029-.02-.044-.038-.044s-.032.015-.036.044q-.166,1.2-.321,2.4l-.024.181q-.131,1-.254,2.006c-.015.125-.031.251-.046.377-.073.6-.147,1.206-.217,1.812-.024.2-.048.411-.07.616-.061.527-.121,1.054-.179,1.585-.031.278-.06.56-.09.839-.048.459-.1.919-.145,1.382-.034.338-.067.679-.1,1.018-.039.408-.08.814-.119,1.225-.036.389-.07.781-.106,1.174-.032.365-.067.73-.1,1.1-.036.435-.072.875-.107,1.312-.026.329-.055.655-.08.986-.038.486-.072.977-.108,1.469-.02.285-.043.57-.063.856-.036.527-.07,1.059-.1,1.592-.017.261-.034.519-.049.78-.034.553-.065,1.111-.1,1.668-.014.249-.027.5-.041.747-.031.578-.058,1.165-.085,1.75-.01.235-.022.467-.032.7-.026.6-.05,1.2-.072,1.81-.009.234-.019.466-.027.7-.02.6-.039,1.216-.058,1.83-.007.247-.015.49-.02.739-.017.6-.029,1.209-.043,1.82-.005.27-.012.537-.017.809-.01.6-.019,1.2-.026,1.8,0,.235-.008.467-.01.7a231.356,231.356,0,0,0-5.884-37.239c-.007-.027-.024-.039-.041-.039s-.039.017-.041.049c-.044.8-.087,1.605-.126,2.41l-.012.251q-.046.965-.087,1.931c-.007.177-.014.355-.021.531-.022.553-.044,1.1-.063,1.656-.009.252-.015.507-.024.759q-.023.716-.044,1.438c-.009.322-.015.647-.022.971-.01.411-.02.821-.027,1.232-.007.384-.012.769-.017,1.153-.005.358-.012.716-.015,1.076-.005.432-.007.867-.009,1.3,0,.314,0,.629-.005.945q0,.711,0,1.431c0,.281,0,.561,0,.844,0,.508.01,1.022.017,1.535,0,.256.007.512.01.769.01.539.022,1.083.034,1.629.005.235.01.471.015.708.015.565.032,1.134.051,1.706.007.223.014.447.022.672.02.585.043,1.175.068,1.767.009.218.017.435.027.655.027.6.056,1.2.087,1.812.012.218.022.437.034.657.032.611.068,1.227.106,1.844l.041.682q.059.916.125,1.847.026.368.051.742c.044.6.09,1.216.138,1.83.014.159.024.314.036.473a253.448,253.448,0,0,0-10.423-35.4.046.046,0,0,0-.041-.034c-.021,0-.041.02-.039.056q.064,1.185.136,2.371c.007.1.014.2.019.307.039.621.079,1.244.121,1.866.012.2.027.394.041.59.037.529.073,1.056.113,1.586.021.268.043.539.065.809q.051.683.107,1.37c.027.329.058.66.085.989.036.4.07.8.106,1.2q.051.563.106,1.129c.034.358.068.715.1,1.075q.064.627.13,1.259c.034.319.067.64.1.96.049.455.1.913.154,1.372.034.29.066.58.1.87.056.486.116.976.176,1.465.034.268.067.536.1.807q.1.763.2,1.534c.034.258.068.513.1.769.072.527.147,1.058.222,1.59.036.249.072.5.108.751.078.541.16,1.088.244,1.636.038.246.075.493.113.74.087.554.174,1.114.266,1.675.039.247.08.5.121.745.092.565.188,1.134.285,1.706q.067.379.133.763.148.855.3,1.72c.049.27.1.539.148.81q.156.852.319,1.714c.026.13.048.256.072.386a248.278,248.278,0,0,0-14.089-33.178.044.044,0,0,0-.039-.029c-.022,0-.043.024-.037.06q.194,1.169.394,2.337c.019.1.036.2.055.305q.159.913.321,1.827c.034.193.07.386.106.577.094.519.189,1.039.287,1.557.048.258.1.515.145.771q.131.683.263,1.366.092.466.186.935c.08.4.159.8.241,1.206q.11.537.223,1.075c.075.358.148.718.225,1.076.085.4.172.8.259,1.2l.21.966c.1.43.194.863.293,1.3.067.3.135.6.2.892q.159.686.322,1.373c.067.278.131.556.2.836.114.479.234.962.353,1.447q.1.392.195.788c.126.5.254,1,.386,1.51.063.249.128.5.193.749q.2.783.415,1.571c.065.242.13.484.2.728q.218.8.442,1.615c.068.239.135.479.2.722q.23.819.467,1.648c.07.244.142.488.213.734q.241.832.491,1.672c.075.252.152.5.227.757.169.558.338,1.117.512,1.682.032.1.061.2.092.3a240.347,240.347,0,0,0-17.431-30.6.048.048,0,0,0-.038-.024c-.026,0-.046.027-.036.065q.317,1.123.641,2.247l.092.314q.253.87.51,1.742c.056.186.113.372.169.56.148.5.3.995.449,1.493.075.246.152.491.227.737.137.438.271.875.409,1.315.09.292.184.585.278.879.124.392.249.786.377,1.18.106.329.215.66.323.991.118.357.234.713.353,1.07s.242.725.365,1.088q.166.5.336.993.2.581.4,1.165.161.461.323.923c.145.411.293.824.44,1.238.106.29.21.58.316.872.155.43.314.86.473,1.291q.156.422.314.844c.166.444.334.89.5,1.337q.156.409.314.819.264.691.537,1.385c.1.266.208.531.314.8.186.474.377.95.568,1.428q.159.394.321.792c.2.483.394.967.6,1.455.109.268.222.536.334.805q.3.732.619,1.472.177.415.357.832c.21.49.42.979.636,1.474.041.094.078.184.119.278A229.821,229.821,0,0,0,232.843,87.66a.042.042,0,0,0-.034-.019c-.026,0-.048.031-.032.068q.422,1.039.853,2.073c.051.123.1.246.155.367.22.527.44,1.056.664,1.581.092.218.186.435.278.652.184.43.367.86.553,1.288q.189.438.382.872c.155.357.31.713.469,1.07s.307.691.462,1.035c.135.3.27.6.406.906.176.387.355.778.534,1.167.119.261.237.52.358.78q.294.637.6,1.274c.106.227.212.452.319.679.215.45.432.9.65,1.356.1.2.2.409.3.614.229.473.462.945.7,1.419.094.188.184.374.278.561q.369.739.746,1.482c.087.172.174.345.263.517q.386.76.785,1.525c.087.167.172.333.259.5.268.515.543,1.035.819,1.556.089.164.176.328.263.493.282.524.566,1.053.855,1.581.089.164.177.328.268.491.29.529.583,1.063.882,1.6.1.171.191.343.287.515q.445.791.9,1.592l.317.556q.45.786.911,1.576c.06.1.118.206.179.309a217.648,217.648,0,0,0-22.854-24.218.049.049,0,0,0-.031-.014c-.029,0-.05.036-.029.072q.53.967,1.066,1.928c.056.1.116.206.174.309q.415.745.836,1.488c.107.191.218.382.328.571.232.408.464.815.7,1.221.147.256.3.512.445.766.2.339.4.681.6,1.02.183.31.368.621.554.933q.253.425.508.853c.212.351.425.7.64,1.056.148.246.3.49.445.734q.358.583.722,1.167l.387.624c.261.418.527.836.793,1.256l.346.546c.281.44.568.882.855,1.325l.316.486q.448.688.909,1.38c.1.148.2.3.3.447.314.469.633.942.952,1.414.1.143.195.287.292.432q.489.714.988,1.435c.1.143.2.287.3.43.334.481.676.966,1.018,1.45l.309.437q.514.724,1.042,1.453c.113.154.222.307.334.461q.522.719,1.06,1.445l.367.5q.527.709,1.066,1.426l.234.312a205.184,205.184,0,0,0-24.757-20.448.051.051,0,0,0-.026-.009.043.043,0,0,0-.026.073q.624.878,1.256,1.75l.164.225q.5.7,1.015,1.394c.116.155.232.312.348.469.28.38.561.759.845,1.14l.495.658c.239.316.476.633.717.948.2.264.406.531.609.795s.413.539.621.807c.239.31.483.621.727.931.174.222.346.444.522.667.271.343.548.687.822,1.032q.228.287.457.571c.3.372.6.742.9,1.114.133.164.266.328.4.493.321.392.648.785.976,1.179l.362.435q.514.614,1.041,1.23l.334.392c.36.421.727.844,1.1,1.269.106.121.21.242.317.363q.56.642,1.135,1.29c.107.119.215.241.322.362.382.43.771.86,1.162,1.291.114.126.227.251.343.377.391.43.788.861,1.187,1.293.119.13.239.259.36.389q.6.64,1.208,1.288c.131.14.263.278.4.418q.594.627,1.206,1.261c.1.1.188.2.283.3a192.61,192.61,0,0,0-26.017-16.419l-.022-.007a.044.044,0,0,0-.022.077l.07.073h0l.027.031a209.415,209.415,0,0,0,15.683,15.6l.015.014q.775.691,1.573,1.385l.049.044q.786.686,1.594,1.375l.072.061q.793.675,1.607,1.356l.107.09q.814.678,1.65,1.361l.113.094q.834.681,1.7,1.37l.119.1.253.2a176.2,176.2,0,0,0-27.487-12.968l-.017,0c-.034,0-.051.046-.017.075l.148.126h0l.031.027c1.754,1.5,3.53,2.965,5.35,4.4.147.116.292.234.44.35.288.227.58.452.872.679.224.172.445.348.67.52.258.2.52.4.781.594s.522.4.787.6l.727.541.872.645c.227.165.457.331.686.5l.949.684.653.462c.336.239.674.476,1.015.715.21.145.42.292.631.437.358.247.717.495,1.08.742l.607.411q.566.381,1.14.763.3.2.6.4.591.392,1.2.783l.587.379c.415.266.833.534,1.256.8.193.123.386.246.582.368q.65.409,1.314.819c.191.118.382.237.575.355q.681.417,1.375.838l.57.345q.709.425,1.433.853c.131.077.258.154.391.232a170.217,170.217,0,0,0-28.6-9.014h-.01c-.039,0-.053.049-.015.075l.159.1,0,0q.7.461,1.4.916l.138.09q.76.5,1.518.988l.162.1c.478.307.954.612,1.433.918l.225.143q.7.445,1.406.887l.217.135q.719.45,1.443.894l.186.114q.775.476,1.561.947l.08.048q.8.481,1.614.957l.164.094q.76.443,1.53.884l.215.123q.76.43,1.532.858l.222.123c.524.29,1.054.577,1.588.865l.191.1q.847.453,1.716.9l.111.058q.888.461,1.8.918l.195.1q.85.425,1.725.85l.264.128c.57.273,1.145.548,1.73.821l.288.135q.891.415,1.807.827c.085.038.169.077.254.116q.967.432,1.967.867l.113.049a159.686,159.686,0,0,0-28.772-4.507h0a.038.038,0,0,0-.012.073l.119.055h0q.775.361,1.551.718l.478.22,1.181.544.613.278q.525.241,1.053.479c.223.1.449.2.672.3l1.013.455.686.3q.517.23,1.039.457c.223.1.447.194.67.293l1.112.478c.2.085.406.172.611.259.459.194.923.387,1.389.58l.357.148q.88.361,1.774.716l.471.184q.66.261,1.327.519c.229.087.461.174.691.259.38.145.763.288,1.15.432l.778.283c.368.133.739.264,1.111.4l.824.287c.372.13.747.256,1.124.384.281.094.563.189.848.283.387.128.781.254,1.177.38.28.089.558.179.841.268.444.138.9.275,1.35.411.242.073.479.148.723.22q1,.3,2.037.585c.326.09.66.179.991.27.391.106.781.213,1.179.317.106.027.208.056.316.085-4.243-.321-8.169-.467-11.89-.467a149.473,149.473,0,0,0-16.44.928.036.036,0,0,0-.005.072q1.019.274,2.059.551c.251.068.5.135.754.2.415.109.831.22,1.251.329l1,.261,1.02.261c.389.1.776.2,1.169.3l.551.136q1.451.361,2.943.713c.159.036.314.073.473.111.525.121,1.056.242,1.588.36.177.041.355.08.534.119.554.123,1.116.244,1.681.362.116.026.234.049.35.073,2.592.539,5.284,1.032,8.089,1.457.1.015.2.031.3.044q1.013.154,2.046.29l.2.027c2.2.292,4.479.537,6.831.723l.041,0a136.983,136.983,0,0,0-26.743,5.549.032.032,0,0,0,.005.063l.152.01h0l.027,0q.829.059,1.691.113l.179.012c.529.032,1.065.067,1.612.1l.319.017c.507.029,1.015.056,1.535.082l.5.024c.467.022.937.044,1.414.065.241.01.488.017.732.027.413.015.824.032,1.244.046.322.01.652.017.979.027.348.009.694.02,1.048.029.416.009.839.014,1.261.02.275.005.544.012.822.015q1.052.01,2.126.012,1.139,0,2.3-.017c.3,0,.607-.012.911-.017.464-.009.928-.019,1.4-.031q.594-.018,1.193-.039.561-.02,1.123-.043c.457-.02.914-.041,1.375-.065l.923-.051c.515-.031,1.032-.061,1.551-.1l.645-.048q2.833-.207,5.721-.544c.2-.024.406-.044.609-.07a124.362,124.362,0,0,0-23.572,10.153.028.028,0,0,0,.01.053h.005l.2-.031,0,0c.4-.06.816-.121,1.235-.188.232-.036.474-.075.713-.114s.507-.08.766-.125.505-.084.759-.128l.8-.14.754-.135c.326-.058.657-.121.988-.183s.636-.119.96-.183q.6-.115,1.21-.239c.247-.049.5-.1.749-.153q.479-.1.964-.2c.268-.058.536-.114.805-.174.331-.072.667-.145,1-.22l.764-.171q.827-.189,1.667-.389l.73-.177q.54-.131,1.085-.266l.856-.218q.5-.125,1-.259c.292-.075.582-.152.875-.23.362-.1.725-.2,1.089-.3.392-.107.787-.218,1.181-.329.435-.125.872-.249,1.307-.377.309-.09.618-.184.926-.278l.94-.285c.326-.1.65-.2.974-.305.3-.1.6-.191.9-.29.329-.106.659-.211.988-.321s.633-.215.95-.322q.873-.3,1.74-.607c.266-.1.532-.189.8-.287l.423-.152a107.241,107.241,0,0,0-18.43,13.439.023.023,0,0,0,.012.041l.009,0,.268-.106h0l.019-.007c.281-.109.566-.222.858-.336l.252-.1.73-.288.324-.13.71-.281.35-.142c.237-.094.474-.189.717-.287l.351-.143c.251-.1.5-.2.759-.31l.307-.126c.273-.113.548-.225.824-.343.089-.036.177-.073.264-.111l.9-.379.186-.08q.491-.21.99-.426l.14-.061q.527-.23,1.061-.467l.029-.014c9.228-4.11,19.878-9.983,26.187-18.267a2.712,2.712,0,0,1-.249.227c-4.3,3.473-9.066,6.276-15.626,10.037-4.953,2.842-11.335,6.452-19.074,11.327h0a107.187,107.187,0,0,1,18.8-13.3c.133-.051.261-.106.394-.159.746-.292,1.489-.59,2.225-.9.06-.024.118-.049.176-.075q1.223-.512,2.418-1.056l.072-.031h0a76.753,76.753,0,0,0,10.865-6.075c-4.946,2.66-12.74,5.135-21.023,7.508a268.045,268.045,0,0,0-26.5,8.683h0a125.206,125.206,0,0,1,23.857-9.92c.148-.02.3-.046.444-.066q.949-.133,1.9-.283c.227-.036.454-.073.679-.111q1.057-.174,2.114-.367l.3-.058a93.187,93.187,0,0,0,18.235-5.385c-6.951,1.83-16.244,2.714-26.365,3.485-9.083.693-19.4,1.472-30.971,3.231-.022,0,.021,0,0,0a137.232,137.232,0,0,1,27.025-5.292q1.648.107,3.346.176c.43.017.86.034,1.293.048.382.01.764.022,1.148.029.909.02,1.824.034,2.755.034,1.09,0,2.2-.019,3.323-.046l.626-.017a155.34,155.34,0,0,0,17.819-1.648l-1.2.005c-10.906,0-24.732-1.438-36.985-2.779-9.573-1.047-18.65-2.039-25.129-2.187a145.745,145.745,0,0,1,14.864-.768c4.318,0,8.81.2,13.584.606q2.027.5,4.18.969l.073.017c.6.13,1.2.256,1.812.38.193.039.38.08.575.119.495.1,1,.2,1.506.293.324.063.647.126.976.188.415.077.838.152,1.259.227.437.078.874.157,1.317.232.348.06.7.118,1.058.177.532.087,1.066.176,1.609.259.3.048.6.092.9.138.611.094,1.227.184,1.853.275.263.038.529.073.8.109q1.008.141,2.04.275c.1.012.2.027.3.039v0c4.265.544,9.631,1.064,14.608,1.426-8.1-1.375-21.374-5.034-33.479-8.526-11.822-3.41-24.015-6.926-32.6-8.538a159.352,159.352,0,0,1,28.828,4.846l.14.058.792.329c.118.048.235.1.353.147q.581.238,1.174.478l.079.031c.375.152.752.3,1.135.452l.258.1c.333.131.667.261,1,.392l.256.1q.53.2,1.07.409l.186.072c8.191,3.1,18.622,6.4,30.807,9.648-11-4.19-20.632-8.4-30.973-13.047-9.662-4.343-20.81-9.4-35.7-15.471-.075-.049.075.048,0,0a169.337,169.337,0,0,1,29.2,9.517l.352.2c.232.135.466.268.7.4.522.3,1.046.6,1.578.9.208.118.42.234.628.351l1.232.686.694.384q.832.458,1.682.918c.237.13.479.259.718.389q.665.358,1.343.72l.642.343c.592.314,1.2.631,1.8.95l.78.408q.827.43,1.667.865l.78.4q.793.407,1.605.819l.763.387q1,.507,2.034,1.022l.679.339,1.742.863c.217.106.43.212.647.319.626.307,1.257.618,1.9.93v0c3.892,1.9,9.061,4.343,13.509,6.409-10.453-5.646-20.987-11.994-31.027-18.2-9.716-6.006-20.886-12.953-34.4-20.566h0a181.053,181.053,0,0,1,27.84,13.439c.6.471,1.216.945,1.836,1.423l.263.2q1.835,1.4,3.781,2.839l.3.22c.621.455,1.247.914,1.887,1.375l.089.065q1,.719,2.02,1.445l.394.278q.883.624,1.786,1.254c.114.08.225.159.34.237q1.024.711,2.075,1.431c.167.113.336.227.5.341q.852.578,1.723,1.165l.565.38q1.055.706,2.14,1.424l.589.387q.855.563,1.728,1.131l.735.479c.715.462,1.435.926,2.167,1.4h0c3.694,2.364,8.44,5.3,12.673,7.857-10.191-7.265-17.581-13.135-25.853-19.9-8.391-6.863-18.921-15.51-36.781-28.968h0a191.368,191.368,0,0,1,26.177,16.8c.213.217.432.437.648.655.2.2.4.4.6.606q.719.724,1.46,1.455c.227.223.457.45.686.674q.463.455.935.913c.263.256.526.512.793.769.3.29.606.582.911.873q.714.683,1.447,1.373c.276.261.553.522.834.785.35.328.708.66,1.065.991q.32.3.643.594.584.54,1.179,1.083l.3.27q1.4,1.277,2.865,2.581l.092.082q.763.681,1.547,1.37l.2.179c5.714,5.024,12.842,10.938,20.248,16.813-12.364-11.552-21.053-20.43-30.3-30.051-7.447-7.755-16.032-16.745-28.015-28.454h0a203.731,203.731,0,0,1,24.872,20.851c.287.372.578.749.87,1.124.1.126.193.251.29.375q.694.89,1.408,1.793l.519.65q.486.612.984,1.228c.2.252.4.5.609.756.331.408.667.817,1,1.23.194.235.386.471.582.71q.711.86,1.443,1.737c.283.336.572.677.858,1.018l.739.873.984,1.153c.191.223.386.449.58.674q1.9,2.208,3.945,4.507l.316.353q.714.8,1.447,1.615l.14.157c4.748,5.269,10.7,11.566,16.722,17.7-9.6-11.373-17.914-22.269-26.027-33.092-7.734-10.315-15.824-21.15-26.469-34.2h0A216.365,216.365,0,0,1,249.4,121.283q1.131,1.906,2.341,3.871c.116.189.235.38.353.571q.489.791.991,1.59c.138.222.276.442.416.664q.543.86,1.1,1.735l.293.461q.688,1.075,1.4,2.168l.461.7c.333.508.669,1.017,1.01,1.53l.606.911q.466.7.942,1.4c.212.314.421.626.636.942q.617.908,1.252,1.834.461.67.933,1.353c.3.435.6.87.909,1.31.288.413.582.829.875,1.245q.4.568.8,1.14c.312.442.624.884.944,1.331.252.355.512.715.769,1.075q.947,1.32,1.93,2.673l.664.914c.37.508.749,1.024,1.126,1.537.155.21.305.416.461.626h0c2.452,3.328,5.565,7.455,8.348,11.078-8-12.369-16.993-27.345-25.96-42.482-6.229-10.517-12.8-21.692-19.44-32.521-.043-.106.044.106,0,0A228.932,228.932,0,0,1,253.9,116.808q1.029,2.311,2.15,4.708l.09.194q.535,1.141,1.09,2.3l.1.208q1.185,2.477,2.472,5.058c.082.165.167.333.249.5q.484.967.984,1.952l.444.87q.417.816.845,1.643l.519,1c.285.548.577,1.1.868,1.655.34.648.688,1.3,1.037,1.96.244.457.484.911.732,1.373.283.527.573,1.061.863,1.595.177.328.355.657.536.988q.474.867.957,1.747c.148.27.3.541.447.812.358.647.718,1.3,1.085,1.955l.031.055c2.772,4.969,6.224,10.931,9.575,16.557-7.715-15.807-14.389-30.487-22.278-48.113-4.291-9.585-9.264-20.858-14.941-33.283-.043-.154.044.154,0,0a238.673,238.673,0,0,1,17.411,31.028q.758,2.387,1.59,4.872c.041.121.082.246.123.367q.363,1.08.742,2.178c.06.174.118.346.179.52q.384,1.108.781,2.235c.048.135.094.268.142.4q.461,1.292.94,2.613c.094.256.191.519.285.776.217.594.437,1.187.66,1.789.157.425.319.855.479,1.285s.326.865.491,1.3c.193.508.387,1.017.583,1.53l.377.976q1.745,4.509,3.74,9.369l.082.2c2.448,5.952,5.523,13.067,8.612,19.954-5.5-15.4-10.431-30.779-15.282-46.243-3.965-12.639-8.128-26.047-12.9-40.035-.021-.114.019.116,0,0a246.67,246.67,0,0,1,14.018,33.577q.478,2.421,1.022,4.942c.026.118.051.239.077.357q.243,1.118.5,2.255c.046.206.092.411.138.619q.238,1.049.485,2.117c.051.218.1.433.152.653.193.826.389,1.658.594,2.5l.111.466q.294,1.213.6,2.45c.113.45.229.908.345,1.363s.227.9.345,1.358c.138.541.28,1.085.421,1.634q.138.53.28,1.064.248.944.5,1.9c.046.172.094.346.14.517q1.356,5.046,2.95,10.525l.026.09c1.544,5.3,3.562,11.88,5.477,17.89-2.8-11.337-5.918-26.8-8.887-42.135-2.82-14.57-6.024-31.3-9.686-47.507-.005-.094.007.094,0,0a250.8,250.8,0,0,1,10.317,35.827c.041.469.085.947.13,1.421.021.22.039.438.06.66q.115,1.254.247,2.532c.026.254.053.513.08.769.063.606.126,1.215.194,1.83.039.365.082.734.123,1.1.058.51.116,1.024.177,1.54.048.418.1.836.148,1.259.056.469.116.945.176,1.421.056.459.113.914.172,1.378.043.339.09.687.135,1.03q.22,1.676.459,3.4c.038.275.075.546.114.822q.141,1,.29,2.013l.113.771q.159,1.08.328,2.18c.022.148.046.3.068.449,1.295,8.449,3.151,18.772,5.241,29.239-1.715-12.806-3.428-31.472-5.169-51.847-1.073-12.552-2.158-26.015-3.46-39.634.009-.164-.008.165,0,0,2.836,11.7,4.545,23.568,5.765,38.735v.778c0,.653,0,1.314.007,1.979,0,.278,0,.558.007.838q.008.952.02,1.921c0,.252.007.5.01.759.014.879.031,1.764.049,2.663,0,.169.009.343.014.513q.026,1.1.058,2.224c.009.334.021.674.031,1.012q.028.921.061,1.861c.012.351.024.7.038,1.058q.043,1.134.092,2.289.023.55.048,1.1.051,1.154.109,2.327c.021.428.043.861.065,1.293q.046.865.094,1.743c.026.469.051.938.078,1.412.034.612.072,1.233.109,1.856.031.5.061,1,.094,1.513q.085,1.341.176,2.709c.036.517.072,1.044.109,1.566.039.573.08,1.148.123,1.73.039.553.08,1.107.121,1.667.044.6.092,1.2.138,1.8.041.539.082,1.073.126,1.619l.005.08h0c.3,3.743.7,8.357,1.082,12.431V72.09c2.97,22.412,3.953,48.505,0,91.852h0c1.682-12.75,3.327-31.81,5.042-51.861,1.1-12.821,2.23-26.073,3.567-40.013.005.1.014.244.022.392a260.155,260.155,0,0,1-.326,37.033c-1.211,14.321-3.953,32.606-8.305,54.448,2.767-11.267,5.83-27.03,8.761-42.166,2.866-14.8,6.108-31.537,9.843-48l-.031.522a259.052,259.052,0,0,1-4.277,36.236c-2.74,14.033-7.613,32.345-14.3,53.4,5.321-14.976,10.431-31.218,15.161-46.291,4.038-12.873,8.217-26.178,13.1-40.458l-.079.473a255.222,255.222,0,0,1-8.143,35.162c-4.248,13.558-11.09,31.091-20.038,51.115,7.469-15.355,14.46-30.967,22.164-48.178,4.381-9.792,9.338-20.861,15.173-33.626l-.118.408a248.476,248.476,0,0,1-11.846,33.575c-5.692,12.867-14.289,29.152-25.374,47.821,7.85-12.18,17.082-27.755,25.853-42.562,6.367-10.749,12.948-21.854,19.747-32.92l-.2.479a239.558,239.558,0,0,1-15.456,31.706c-7,11.863-17.048,26.474-29.946,43.3,9.421-11.194,17.923-22.5,25.93-33.186,7.848-10.471,15.966-21.3,26.851-34.617l-.283.51a228.343,228.343,0,0,1-18.687,29.145c-8.084,10.594-19.518,23.555-33.81,38.149,12.062-11.293,21.1-20.677,30.209-30.158,7.565-7.876,16.131-16.794,28.415-28.78l-.312.433a215.016,215.016,0,0,1-21.432,26c-9.013,9.229-21.4,20.208-36.88,32.5,9.993-7.139,17.6-13.333,25.778-20.022,8.484-6.94,19.023-15.558,37.253-29.278l-.4.43a202.146,202.146,0,0,1-24.739,23.3,392.3,392.3,0,0,1-37.9,25.571c10.3-5.58,21.05-12.2,30.966-18.33,9.872-6.1,21.043-13.007,34.859-20.771l-.394.333a186.2,186.2,0,0,1-27.909,19.74l0,0c-9.675,5.588-21.361,11.559-36.489,18.584l-1.037.445c11.105-4.222,20.511-8.5,30.925-13.181,9.812-4.411,20.919-9.4,36.16-15.605l-.411.27c-8.643,5.658-17.135,11.131-29.366,16.278v0a293.809,293.809,0,0,1-37.308,12.241c8.094-1.377,21.354-5.179,33.449-8.668,12.315-3.553,25.022-7.214,33.653-8.726l-.65.3c-8.979,4.157-18.25,8.637-31.311,11.9a213.052,213.052,0,0,1-35.141,5.2c10.936.024,25.831-1.569,38.171-2.919,10-1.093,19.445-2.124,25.972-2.2l-.653.176c-8.884,2.388-19.489,5.389-32.524,6.32-2.945.212-6,.336-9.194.336a152.62,152.62,0,0,1-21.772-1.711c6.925,1.808,16.311,2.572,26.377,3.338,9.258.706,19.726,1.506,31.574,3.338l-.613.039c-5.234.343-9.786.5-14.219.5a147.034,147.034,0,0,1-19.388-.942,97.807,97.807,0,0,1-23.73-6.278c4.936,2.67,12.746,4.985,21.057,7.366a263.067,263.067,0,0,1,27.114,8.925l-.645-.1a158.4,158.4,0,0,1-22.862-4.969q-3.972-1.221-7.536-2.566a86.966,86.966,0,0,1-17.128-8.656c4.18,3.308,9.6,6.5,15.939,10.135C300,177,306.3,180.612,314.348,185.7l-.427-.169c-6.852-2.69-14.942-5.669-22.4-10.558a58.642,58.642,0,0,1-12.549-11.034c9.7,12.741,25.092,18.048,36.23,22.4l.008,0a.022.022,0,0,0,.01-.041l-.2-.182a106.792,106.792,0,0,0-16.937-12.5,162.48,162.48,0,0,0,29.818,7.016h.005a.028.028,0,0,0,.01-.053l-.309-.171a123.272,123.272,0,0,0-22.019-9.575,155.336,155.336,0,0,0,16.505.614c5.76,0,11.081-.28,15.64-.6.039,0,.044-.067.007-.063l-.322-.1a136.169,136.169,0,0,0-25.024-5.29c12.241-1.122,22.412-4.041,31.475-6.482a.036.036,0,0,0-.005-.072l-.336-.034a148.7,148.7,0,0,0-16.1-.894c-3.269,0-6.695.111-10.356.357,11.9-3.255,20.741-7.581,29.721-11.743a.038.038,0,0,0-.012-.073h0l-.355.024a158.8,158.8,0,0,0-26.74,4.074c10.97-4.91,18.916-10.147,27.274-15.651C346.986,134.882,346.973,134.833,346.934,134.833Z" transform="translate(-210.971 -70.347)"/></svg>