<svg xmlns="http://www.w3.org/2000/svg" width="140.517" height="54.027" viewBox="0 0 140.517 54.027"><defs><style>.a{fill:#434b42;}</style></defs><path class="a" d="M273.946,100.381h0l-.085.02a78.28,78.28,0,0,0-12.382,3.859,84.514,84.514,0,0,0,11.876-8.7.019.019,0,0,0-.009-.035l-.007,0-.073.028a80.786,80.786,0,0,0-11.976,5.622,95.833,95.833,0,0,0,10.724-10.392c.014-.015.006-.036-.009-.036l-.01,0-.108.059a88.783,88.783,0,0,0-11.353,7.148,102.165,102.165,0,0,0,9.43-11.729.02.02,0,0,0-.012-.034.029.029,0,0,0-.013,0s-.067.046-.077.056A94.926,94.926,0,0,0,259,95.207a108.748,108.748,0,0,0,8.207-13.131.021.021,0,0,0-.013-.033.023.023,0,0,0-.014.006l-.075.07a100.893,100.893,0,0,0-10.034,10.624,113.973,113.973,0,0,0,6.789-14.31c.007-.017,0-.032-.015-.032a.022.022,0,0,0-.017.009l-.064.077a106.828,106.828,0,0,0-8.923,12.038,118.5,118.5,0,0,0,5.163-15.114c0-.017,0-.03-.017-.03a.022.022,0,0,0-.017.011l-.037.056a111.766,111.766,0,0,0-7.7,13.5A121.678,121.678,0,0,0,255.753,73.1c0-.017-.007-.028-.018-.028a.019.019,0,0,0-.017.014l-.028.058a115.884,115.884,0,0,0-6.24,14.652,123.364,123.364,0,0,0,1.78-16.288c0-.017-.008-.026-.018-.026a.021.021,0,0,0-.018.016l-.023.063a118.054,118.054,0,0,0-4.628,15.631,123.945,123.945,0,0,0,.006-16.561c0-.015-.009-.023-.018-.023s-.016.006-.019.018l-.013.054a107.492,107.492,0,0,0-2.677,16.889h0c-.006.064-.011.13-.017.194s-.012.135-.018.2v.008a136.218,136.218,0,0,0-1.3-17.606c0-.014-.009-.021-.017-.021s-.015.007-.017.021q-.077.559-.149,1.119l-.011.084q-.06.466-.118.934l-.021.176c-.034.28-.068.562-.1.844-.011.1-.022.191-.032.287-.028.245-.056.491-.083.738-.014.13-.028.261-.042.391-.022.214-.045.428-.067.644-.016.157-.031.316-.047.474-.018.19-.037.379-.055.57s-.032.364-.049.547-.031.34-.046.511c-.017.2-.033.408-.05.611-.012.153-.025.305-.037.459-.017.226-.033.455-.05.684-.009.133-.02.265-.029.4-.017.246-.032.493-.048.741-.008.122-.016.242-.023.363-.016.257-.03.517-.044.777l-.019.348c-.014.269-.027.543-.039.815,0,.11-.01.218-.015.328-.012.278-.023.56-.033.843,0,.109-.009.217-.013.327-.009.281-.018.566-.027.853,0,.115-.007.228-.009.344-.008.28-.013.563-.02.848,0,.126-.006.25-.008.377,0,.277-.009.558-.012.839,0,.11,0,.218,0,.328a108.308,108.308,0,0,0-2.726-17.344c0-.013-.011-.018-.019-.018s-.018.008-.019.023c-.021.374-.04.748-.059,1.123l-.006.117q-.021.449-.04.9l-.009.247c-.01.257-.021.514-.029.771,0,.118-.007.236-.011.354q-.011.334-.021.67c0,.15-.007.3-.01.452,0,.191-.009.382-.013.574s-.006.358-.008.537-.006.334-.007.5c0,.2,0,.4,0,.605l0,.44q0,.331,0,.667c0,.131,0,.261,0,.393,0,.237,0,.476.008.715,0,.119,0,.238,0,.358,0,.251.01.5.016.759l.007.33c.007.263.015.528.024.795,0,.1.006.208.01.313.009.273.02.547.032.823,0,.1.008.2.013.305.013.279.026.561.04.844.006.1.01.2.016.306.015.284.032.571.049.859l.019.318q.027.427.058.86l.024.346c.021.281.042.566.064.853.006.074.011.146.017.22A118.543,118.543,0,0,0,233.742,71.5a.021.021,0,0,0-.019-.016c-.009,0-.019.01-.018.026q.03.552.063,1.1c0,.048.006.1.009.143q.027.434.056.869c.006.091.013.184.019.275.017.246.034.492.052.739.009.125.02.251.03.377q.024.318.05.638c.013.153.027.307.04.461.017.187.032.373.049.56s.032.35.049.526.032.333.048.5q.03.292.06.586c.016.149.031.3.047.447.023.212.047.425.071.639.016.135.031.27.047.405.026.226.054.454.081.682.016.125.031.249.047.376q.045.355.092.714l.047.358c.033.246.068.493.1.74l.05.35c.036.252.074.507.113.762l.052.345c.04.258.081.519.123.78.018.115.037.231.056.347.043.263.087.528.132.795l.062.355q.069.4.141.8l.069.377q.072.4.148.8c.012.06.022.119.033.18a115.99,115.99,0,0,0-6.526-15.453.02.02,0,0,0-.018-.014c-.01,0-.02.011-.017.028q.09.545.183,1.089c.009.048.017.095.025.142q.074.425.149.851c.016.09.032.18.049.269.043.242.088.484.133.725.022.12.045.24.067.359q.06.318.122.636.043.217.086.435c.037.187.073.374.111.562q.051.25.1.5c.035.167.069.334.1.5.04.186.08.373.12.559l.1.45c.044.2.09.4.136.6.031.138.062.277.094.416q.074.319.149.64c.031.13.061.259.092.389.053.223.108.448.164.674l.09.367c.059.233.118.468.179.7.029.116.059.233.089.349q.095.365.192.732c.03.113.06.226.091.339q.1.374.2.752c.032.111.062.223.094.336q.107.381.217.767c.032.114.066.227.1.342q.111.387.228.779l.105.353c.078.26.156.52.237.783.015.048.028.094.043.141a112.1,112.1,0,0,0-8.074-14.253.022.022,0,0,0-.017-.011c-.012,0-.021.013-.017.03q.147.523.3,1.046l.043.146q.117.405.236.811l.078.261c.069.231.138.463.208.7l.105.343c.063.2.126.408.19.613.042.136.085.273.129.409.058.183.115.366.175.55.049.153.1.307.149.462s.108.332.164.5.112.338.169.507q.077.231.156.462l.186.543.149.43c.067.191.136.384.2.577l.146.406c.072.2.145.4.219.6q.072.2.145.393c.077.207.155.415.233.623q.072.191.145.381.122.322.249.645c.047.124.1.247.145.371.086.221.175.443.263.665l.149.369c.091.225.183.45.277.678.051.125.1.249.155.375.094.227.19.455.287.686l.165.388c.1.228.194.456.295.686l.055.13a107,107,0,0,0-9.39-12.75.019.019,0,0,0-.016-.009c-.012,0-.022.014-.015.032q.2.484.4.965l.072.171c.1.246.2.492.307.737.043.1.086.2.129.3.085.2.17.4.256.6q.088.2.177.406c.072.166.144.332.217.5s.142.322.214.482l.188.422c.081.18.164.362.247.543.055.122.11.242.166.363q.136.3.277.593l.148.316c.1.21.2.421.3.632.046.1.091.191.138.286.106.22.214.44.322.661l.129.261q.171.344.345.69c.04.08.081.16.122.241q.179.354.363.71l.12.232c.124.24.251.482.379.725.041.076.081.153.122.23.13.244.262.49.4.737.041.076.082.153.124.229.134.246.27.495.409.744l.133.24q.206.368.417.741l.147.259q.209.366.422.734c.028.048.055.1.083.144a101.138,101.138,0,0,0-10.585-11.28.023.023,0,0,0-.014-.006c-.013,0-.023.017-.013.033q.245.45.494.9c.026.048.054.1.081.144q.192.347.387.693c.05.089.1.178.152.266.107.19.215.38.324.569.068.119.137.238.206.357.092.158.183.317.276.475s.171.289.257.435l.235.4c.1.164.2.328.3.492.069.114.137.228.206.342q.166.272.334.543l.179.291c.121.195.244.389.367.585l.16.254c.13.2.263.411.4.617l.146.226q.207.321.421.643l.137.208c.145.218.293.439.441.659l.135.2q.226.332.458.668l.138.2c.155.224.313.45.472.675l.143.2q.238.337.483.677l.155.215q.242.335.491.673l.17.232q.244.33.494.664l.108.145A95.151,95.151,0,0,0,215,86.2a.023.023,0,0,0-.012,0,.02.02,0,0,0-.012.034q.289.409.582.815l.076.1q.234.324.47.649l.161.218c.13.177.26.354.391.531l.229.307c.111.147.22.295.332.442l.282.37q.143.188.288.376c.111.145.224.289.337.434l.242.311c.126.16.254.32.381.481q.105.133.212.266c.138.173.278.346.419.519l.186.23c.149.183.3.365.452.549l.168.2q.238.286.482.573l.155.183c.167.2.337.393.507.591l.147.169q.26.3.526.6l.149.168c.177.2.357.4.538.6l.159.176c.181.2.365.4.55.6l.167.181q.276.3.559.6l.183.195q.275.292.559.587L225,98.4a89.142,89.142,0,0,0-12.05-7.647l-.01,0a.02.02,0,0,0-.01.036l.032.034h0l.013.014a97.274,97.274,0,0,0,7.264,7.263l.007.006q.359.322.729.645l.023.021q.364.319.738.64l.033.029q.367.315.744.632l.05.042q.377.316.764.634l.052.044q.386.317.785.638l.055.044.117.1a81.4,81.4,0,0,0-12.731-6.04l-.008,0c-.016,0-.024.021-.008.035l.069.059h0l.014.013c.812.7,1.635,1.381,2.478,2.051l.2.163c.134.106.269.211.4.316.1.08.206.162.311.242l.362.276c.121.093.242.186.364.278l.337.252.4.3.318.232.439.319.3.215c.156.111.312.222.47.333l.292.2c.166.115.332.23.5.346l.281.191.528.355.279.185q.274.182.554.365l.272.176q.288.186.582.373l.269.172q.3.191.608.381l.266.165.637.39.264.16q.328.2.664.4l.181.108a78.524,78.524,0,0,0-13.245-4.2h0c-.018,0-.024.023-.007.035l.074.048h0l.647.427.064.042.7.46.075.048.664.427.1.067.651.413.1.063q.333.21.669.416l.086.053q.359.222.723.441l.037.022q.371.224.748.446l.076.044q.352.206.709.412l.1.057q.352.2.71.4l.1.057c.243.135.488.269.736.4l.089.048q.392.211.795.421l.051.027q.411.215.834.427l.09.045q.393.2.8.4l.122.06c.264.127.53.255.8.382l.134.063q.412.193.837.385l.118.054q.448.2.911.4l.052.023a73.583,73.583,0,0,0-13.327-2.1h0a.018.018,0,0,0-.006.034l.055.025h0l.718.335.221.1.547.253.284.13.488.223.311.141.469.212.318.141.481.213.311.137.515.222.283.121c.213.091.427.18.643.27l.165.069q.408.168.822.334l.218.086.615.242.32.121.533.2.36.132.514.185.382.133c.172.06.346.119.521.179l.393.132c.179.06.362.118.545.177l.39.125c.205.064.415.128.625.191.112.034.222.069.335.1q.465.138.944.273l.459.126c.181.049.362.1.546.148l.146.04c-1.965-.149-3.784-.218-5.507-.218a68.858,68.858,0,0,0-7.615.432.017.017,0,0,0,0,.033l.954.257.349.094.579.153.461.122.473.122.541.139.255.064q.672.168,1.363.332l.219.052c.243.056.489.113.736.168l.247.056q.385.086.778.168l.162.034c1.2.251,2.447.481,3.746.679l.137.021q.469.072.947.135l.093.013c1.021.136,2.074.25,3.164.337l.019,0a63.141,63.141,0,0,0-12.387,2.585.015.015,0,0,0,0,.029l.07,0h.013q.384.027.783.052l.083.006c.245.015.493.031.747.045l.148.008c.235.014.47.026.711.038l.232.011.655.03.339.013.576.021.454.013.485.014.584.01.381.007q.487,0,.985.006.527,0,1.066-.008c.14,0,.281-.006.422-.008l.647-.014.552-.018.52-.02c.212-.01.424-.019.637-.03l.428-.024c.239-.014.478-.029.718-.045l.3-.022q1.312-.1,2.65-.253c.094-.011.188-.021.282-.033a57.437,57.437,0,0,0-10.918,4.729.013.013,0,0,0,0,.025h0l.092-.014h0c.186-.028.378-.056.572-.087l.33-.053c.117-.019.235-.037.355-.058l.352-.06.372-.065.349-.063c.151-.027.3-.056.458-.085l.445-.085.56-.111.347-.072.447-.093.373-.081.465-.1.354-.079q.383-.088.772-.181l.338-.083.5-.124.4-.1q.231-.058.463-.121l.405-.107.5-.139.547-.153c.2-.058.4-.116.605-.176.143-.042.286-.086.429-.13l.435-.133c.151-.047.3-.094.451-.142l.419-.135c.152-.049.305-.1.458-.149l.44-.15q.4-.138.806-.283l.37-.133.2-.071a49.686,49.686,0,0,0-8.536,6.259.011.011,0,0,0,.006.019h0l.124-.049h0l.009,0,.4-.157.117-.046.338-.134.15-.06.329-.131.162-.066.332-.133.163-.067.352-.145.142-.059c.126-.052.254-.1.382-.16l.122-.052.417-.176.086-.037.458-.2.065-.029.492-.218.013-.006c4.274-1.914,9.207-4.65,12.129-8.508a1.271,1.271,0,0,1-.115.106,53.962,53.962,0,0,1-7.238,4.675c-2.294,1.324-5.25,3-8.835,5.276h0a49.652,49.652,0,0,1,8.709-6.194c.062-.024.121-.049.183-.074.345-.136.69-.275,1.03-.418l.081-.035q.567-.238,1.12-.492l.033-.014h0a35.5,35.5,0,0,0,5.032-2.829,54.612,54.612,0,0,1-9.737,3.5,123.669,123.669,0,0,0-12.274,4.044h0a57.819,57.819,0,0,1,11.05-4.62l.205-.031q.44-.062.879-.132l.315-.052q.49-.081.979-.171l.138-.027a42.984,42.984,0,0,0,8.446-2.508,73.709,73.709,0,0,1-12.212,1.623c-4.207.323-8.984.686-14.345,1.5h0a63.252,63.252,0,0,1,12.517-2.465q.763.05,1.55.082c.2.008.4.016.6.022.177,0,.354.01.532.014.421.01.845.016,1.276.016.505,0,1.02-.009,1.539-.021l.29-.008a71.564,71.564,0,0,0,8.253-.767l-.554,0a170.854,170.854,0,0,1-17.131-1.294c-4.434-.488-8.638-.949-11.639-1.019a67.129,67.129,0,0,1,6.885-.358c2,0,4.081.094,6.292.282q.939.234,1.936.451l.034.008c.276.06.557.119.839.177l.266.056c.229.046.463.091.7.137l.452.087.583.106c.2.037.4.073.61.108l.49.083c.247.041.494.082.745.121l.418.064c.283.044.568.086.858.128l.368.051q.467.066.945.128l.138.018h0c1.976.253,4.461.5,6.766.664-3.751-.64-9.9-2.345-15.507-3.971-5.476-1.588-11.123-3.226-15.1-3.977a73.434,73.434,0,0,1,13.353,2.257l.065.027.367.153.164.068.544.222.036.014c.174.071.348.141.525.211l.119.048.465.183.119.046.5.191.086.033c3.794,1.444,8.625,2.98,14.269,4.494-5.095-1.951-9.556-3.911-14.346-6.076-4.475-2.023-9.639-4.377-16.535-7.205h0a78.125,78.125,0,0,1,13.522,4.433l.163.094.325.188c.242.139.484.278.731.417l.291.164.571.319.322.179q.385.213.779.427l.333.181.622.335.3.16.835.443.361.19.772.4.361.187.744.381.353.18q.465.236.942.476l.314.158.807.4.3.149.879.433h0c1.8.884,4.2,2.023,6.257,2.985-4.842-2.63-9.721-5.586-14.371-8.477-4.5-2.8-9.674-6.033-15.935-9.579h0a83.659,83.659,0,0,1,12.9,6.259c.279.219.563.44.85.663l.122.094q.85.653,1.751,1.322l.138.1c.288.212.578.426.874.64l.041.03q.461.335.936.673l.183.13q.409.291.827.584l.157.11q.474.331.961.667l.232.159q.395.269.8.543l.262.177q.488.329.991.663l.273.18q.4.262.8.527l.341.223c.331.215.665.431,1,.65h0c1.711,1.1,3.909,2.469,5.87,3.66-4.72-3.384-8.143-6.118-11.974-9.27-3.886-3.2-8.764-7.224-17.036-13.492h0A88.577,88.577,0,0,1,225.581,99l.3.305.277.282q.333.337.676.678l.318.314q.215.212.433.425l.367.358c.139.135.281.271.422.407q.331.318.67.64l.386.365.493.462.3.276q.27.251.546.5l.138.126q.648.595,1.327,1.2l.043.038q.353.317.717.638l.095.083c2.646,2.34,5.948,5.094,9.379,7.831-5.727-5.38-9.752-9.515-14.032-14-3.449-3.612-7.426-7.8-12.976-13.253h0a94.491,94.491,0,0,1,11.52,9.711l.4.524.134.175q.321.415.652.835l.24.3q.225.285.456.572c.093.118.187.234.282.352l.465.573.269.331q.33.4.669.809l.4.474.342.407.456.537.269.314q.881,1.029,1.827,2.1l.146.164q.331.374.67.752l.065.073c2.2,2.454,4.957,5.387,7.745,8.244-4.444-5.3-8.3-10.372-12.055-15.413-3.582-4.8-7.329-9.85-12.26-15.929h0A100.555,100.555,0,0,1,228.769,94.07q.524.888,1.084,1.8l.164.266q.226.368.459.74l.193.309q.251.4.51.808l.136.215q.319.5.65,1.01l.213.327c.154.237.31.474.468.713l.281.424q.216.324.436.652c.1.146.2.292.295.439q.286.423.58.854l.432.63c.14.2.279.405.421.61s.269.386.405.58q.184.265.372.531c.145.206.289.412.437.62.117.165.237.333.356.5q.439.615.894,1.245l.307.426c.171.237.347.477.522.716l.213.292h0c1.136,1.55,2.578,3.472,3.867,5.16-3.707-5.761-7.871-12.736-12.024-19.786-2.885-4.9-5.928-10.1-9-15.147-.02-.049.021.049,0,0a106.6,106.6,0,0,1,9.415,12.98q.477,1.076,1,2.193l.042.091q.248.532.5,1.073l.046.1q.549,1.154,1.145,2.356l.115.232q.224.45.456.909l.205.405q.193.38.391.765l.24.466c.132.255.267.512.4.771.157.3.318.606.48.913l.339.64c.131.245.266.494.4.743.082.153.164.306.248.46q.219.4.443.814l.207.378c.166.3.333.6.5.911l.014.025c1.284,2.314,2.883,5.091,4.435,7.712-3.573-7.362-6.665-14.2-10.319-22.409-1.987-4.464-4.291-9.715-6.92-15.5-.02-.072.021.072,0,0a111.333,111.333,0,0,1,8.064,14.451q.351,1.112.736,2.269l.057.171q.168.5.344,1.015c.028.081.055.161.083.242q.178.516.362,1.041l.066.188q.213.6.435,1.217l.132.362c.1.276.2.553.306.833.073.2.148.4.222.6s.151.4.228.605c.089.237.179.474.27.713l.175.454q.808,2.1,1.732,4.363l.038.094c1.134,2.772,2.558,6.086,3.989,9.293-2.549-7.174-4.832-14.335-7.078-21.538-1.836-5.887-3.765-12.131-5.974-18.646-.009-.053.009.054,0,0a115.235,115.235,0,0,1,6.493,15.638q.222,1.127.473,2.3l.036.166q.113.521.23,1.05l.064.288q.11.489.224.986c.024.1.047.2.07.3q.134.577.275,1.165l.051.217q.136.565.279,1.141c.052.21.106.423.16.635s.105.42.16.632q.1.378.2.761.064.247.13.5.115.44.233.885l.065.241q.628,2.35,1.366,4.9l.012.042c.715,2.469,1.65,5.533,2.537,8.332-1.3-5.28-2.741-12.482-4.116-19.625-1.306-6.786-2.79-14.576-4.486-22.126,0-.044,0,.044,0,0a117.3,117.3,0,0,1,4.779,16.686c.019.218.04.441.06.662.009.1.018.2.028.307q.053.584.115,1.179c.012.118.025.239.037.358.029.282.059.566.09.853.018.17.038.342.057.512.027.238.054.477.082.717.022.195.045.389.069.586.026.218.054.44.081.662s.052.426.08.642c.02.158.042.32.062.48q.1.781.213,1.583c.017.128.035.254.053.383q.065.465.134.938l.052.359q.074.5.152,1.015c.01.069.021.139.032.209.6,3.935,1.46,8.743,2.428,13.618-.794-5.964-1.588-14.658-2.394-24.148-.5-5.846-1-12.116-1.6-18.46,0-.076,0,.077,0,0a113.289,113.289,0,0,1,2.67,18.041v.362c0,.3,0,.612,0,.922,0,.13,0,.26,0,.39q0,.443.009.895c0,.118,0,.235,0,.354.006.409.014.822.023,1.24,0,.079,0,.16.006.239q.012.514.027,1.036c0,.156.009.314.014.471q.013.429.028.867c.006.164.011.327.017.493q.02.528.043,1.066.011.256.022.513.024.537.051,1.084c.009.2.02.4.03.6q.021.4.043.812c.012.218.024.437.036.658.016.285.033.574.051.864.014.234.028.468.043.7q.039.625.081,1.262c.017.241.033.486.051.729.018.267.037.535.057.806s.037.516.056.776c.021.277.043.559.064.84.019.251.038.5.059.754l0,.037h0c.138,1.743.325,3.892.5,5.79V71.159c1.376,10.438,1.831,22.591,0,42.78h0c.779-5.938,1.541-14.815,2.335-24.154.507-5.972,1.033-12.143,1.652-18.636,0,.048.006.114.01.183a121.842,121.842,0,0,1-.151,17.248,237.593,237.593,0,0,1-3.847,25.359c1.282-5.248,2.7-12.589,4.058-19.639,1.328-6.893,2.829-14.688,4.559-22.354l-.014.243a121.29,121.29,0,0,1-1.981,16.877,236.781,236.781,0,0,1-6.621,24.873c2.465-6.975,4.831-14.54,7.022-21.56,1.87-6,3.806-12.193,6.067-18.844l-.036.22a119.444,119.444,0,0,1-3.772,16.377,230.45,230.45,0,0,1-9.281,23.807c3.46-7.151,6.7-14.423,10.266-22.439,2.029-4.561,4.325-9.716,7.028-15.661l-.055.19a116.163,116.163,0,0,1-5.487,15.638,220.627,220.627,0,0,1-11.752,22.273c3.636-5.673,7.912-12.927,11.974-19.823,2.949-5.006,6-10.179,9.146-15.333l-.092.223a111.832,111.832,0,0,1-7.159,14.767,209.6,209.6,0,0,1-13.87,20.166c4.364-5.214,8.3-10.481,12.01-15.457,3.635-4.877,7.4-9.92,12.437-16.123l-.131.238a106.422,106.422,0,0,1-8.655,13.574,200.027,200.027,0,0,1-15.66,17.768c5.587-5.26,9.774-9.63,13.992-14.046,3.5-3.668,7.472-7.822,13.161-13.4l-.145.2A100.037,100.037,0,0,1,259.548,98.8a187.394,187.394,0,0,1-17.082,15.138c4.628-3.325,8.152-6.21,11.94-9.325,3.93-3.232,8.811-7.246,17.255-13.636l-.183.2a93.855,93.855,0,0,1-11.458,10.851,181.661,181.661,0,0,1-17.553,11.91c4.771-2.6,9.75-5.682,14.343-8.537,4.572-2.843,9.747-6.058,16.146-9.674l-.183.155a86.246,86.246,0,0,1-12.927,9.194h0c-4.481,2.6-9.894,5.384-16.9,8.655l-.48.207c5.144-1.966,9.5-3.959,14.324-6.139,4.545-2.055,9.689-4.379,16.748-7.268l-.19.126a79.314,79.314,0,0,1-13.6,7.581h0a135.556,135.556,0,0,1-17.28,5.7c3.749-.641,9.891-2.412,15.493-4.037,5.7-1.655,11.59-3.36,15.587-4.064l-.3.14a75.128,75.128,0,0,1-14.5,5.54,98.176,98.176,0,0,1-16.276,2.421c5.065.011,11.964-.731,17.68-1.359,4.63-.509,9.006-.989,12.03-1.026l-.3.082a75.538,75.538,0,0,1-15.064,2.944c-1.364.1-2.778.157-4.259.157a70.306,70.306,0,0,1-10.084-.8,75.588,75.588,0,0,0,12.217,1.555c4.288.329,9.137.7,14.624,1.555l-.284.018c-2.424.16-4.533.234-6.586.234a67.733,67.733,0,0,1-8.98-.439,45.1,45.1,0,0,1-10.991-2.924,54.743,54.743,0,0,0,9.753,3.431,121.375,121.375,0,0,1,12.558,4.157l-.3-.047a73.018,73.018,0,0,1-10.589-2.314q-1.84-.568-3.49-1.195a40.193,40.193,0,0,1-7.933-4.031,62.177,62.177,0,0,0,7.382,4.72c2.358,1.36,5.276,3.044,9,5.415l-.2-.079a54.66,54.66,0,0,1-10.377-4.917,27.207,27.207,0,0,1-5.812-5.139c4.495,5.934,11.622,8.406,16.781,10.434h0a.01.01,0,0,0,0-.019l-.094-.085a49.481,49.481,0,0,0-7.845-5.822,74.9,74.9,0,0,0,13.811,3.268h0a.013.013,0,0,0,0-.025l-.143-.079a56.934,56.934,0,0,0-10.2-4.46,71.551,71.551,0,0,0,7.645.286c2.668,0,5.133-.13,7.244-.279.018,0,.021-.031,0-.029l-.149-.046a62.768,62.768,0,0,0-11.59-2.464,81.9,81.9,0,0,0,14.578-3.019.017.017,0,0,0,0-.033l-.156-.016a68.5,68.5,0,0,0-7.458-.416c-1.514,0-3.1.052-4.8.166a81.873,81.873,0,0,0,13.766-5.469.018.018,0,0,0-.006-.034h0l-.164.011a73.171,73.171,0,0,0-12.385,1.9,83.905,83.905,0,0,0,12.633-7.29C273.97,100.4,273.964,100.381,273.946,100.381Z" transform="translate(-210.971 -70.347)"/><path class="a" d="M143.327,93.936c-1.869,0-4.7.047-6.354.091-1.5.04-4.2.078-5.547.078-.635,0-1.344-.035-2.162-.108.21,5.8.315,12.1.315,18.722,0,5.7-.084,7.927-.251,12.374l-.064,1.734a20.828,20.828,0,0,1,2.219-.081,16.159,16.159,0,0,1,1.753.065c-.2-3.819-.3-6.744-.3-8.935v-4.194l.624.037c.845.051,2.7.112,6.767.112,9.739,0,15.1-3.835,15.1-10.8C155.427,97.166,151.129,93.936,143.327,93.936Zm-4.814,19.032c-.856,0-4.19-.058-5.03-.114l-.549-.037v-5.648c0-3.742.092-7.568.284-11.7l.023-.512.51-.047c1.254-.113,4.779-.173,6.008-.173,8.182,0,11.52,2.55,11.52,8.8S146.983,112.968,138.512,112.968Z" transform="translate(-55.021 -77.226)"/><path class="a" d="M329.007,126.87c-.307-8.318-.427-13.667-.427-19.031,0-5.547.1-8.415.294-12.39l.068-1.363a22.459,22.459,0,0,1-4.116,0c.221,2.946.4,8.9.454,14.949v.163l-6.208.1c-1.952.032-4,.049-6.086.049s-4.135-.017-6.085-.049l-6.213-.1v-.162c.02-5.86.107-13.118.285-14.944a20.754,20.754,0,0,1-3.965-.005c.3,4.372.348,7.18.348,13.754,0,8.262-.13,13.621-.465,19.024a17.751,17.751,0,0,1,4.038,0c-.193-2.111-.253-9.806-.246-15.927v-.161l.161,0q3.131-.048,6.057-.072t6.084-.023q3.145,0,6.085.023t6.061.072l.16,0v.161c.026,6.955-.121,12.6-.415,15.926a18.975,18.975,0,0,1,1.969-.069A20.632,20.632,0,0,1,329.007,126.87Z" transform="translate(-188.49 -77.217)"/></svg>